<svg xmlns="http://www.w3.org/2000/svg" width="581.99548" height="263.11243">
  <g fill="#e51636">
    <path d="M557.98908 150.776065c-3.16625 0-5.74-2.731-5.74-6.0875 0-3.366125 2.57375-6.08 5.74-6.08 3.1725 0 5.745 2.713875 5.745 6.08 0 3.3565-2.5725 6.0875-5.745 6.0875m0-13.643625c-3.93375 0-7.13625 3.368625-7.13625 7.556125 0 4.176375 3.2025 7.57525 7.13625 7.57525 3.945 0 7.155-3.398875 7.155-7.57525 0-4.1875-3.21-7.556125-7.155-7.556125"/>
    <path d="M556.78908 145.889815h.4525l.45.022375c.315.0225.5625.050375.71375.129.26875.1025.48625.305125.58125.57125.07375.183625.115.496125.115.959.02375.474625.06875.84075.14375 1.085h1.98875l-.0725-.21875c-.01875-.07525-.04625-.1475-.04625-.2315 0-.07225-.0225-.141125-.0225-.226125v-.69375c0-.818875-.21625-1.3965-.7-1.7525-.25875-.222625-.6425-.358875-1.14-.471125.5525-.050375 1.01625-.237875 1.39125-.5255.38375-.286125.56375-.775875.56375-1.428625 0-.871125-.36125-1.49225-1.07375-1.871125-.41-.223625-.92625-.3725-1.57875-.410125-.1025 0-.64875 0-1.6325-.01225h-2.22875v7.841375h2.095v-2.766625zm1.955-1.703625c-.265.192375-.66.294875-1.14875.294875h-.80625v-2.29h.5025c.525 0 .9225.046375 1.21625.158625.43.184125.63875.46875.63875.901375 0 .442375-.1225.737875-.4025.935125M276.69033 178.387315c4.73625 0 5.8625 4.74025 5.64 7.394125-.93875 10.956-15.7625 19.866125-19.5175 20.3095 2.01-22.65325 8.64625-27.44475 13.8775-27.703625m-147.71875 2.4175c-2.99275 4.560125-6.770625 9.590375-11.403375 15.173875.248-2.294.493125-4.47275.76075-6.57225 3.71925-29.859 9.217625-39.88625 16.375125-38.620125 2.33125.492125 3.28375 3.021 3.3425 5.067375.525 6.495125-2.22125 14.492625-9.075 24.951125m405.13 27.835c-3.62375-5.473625-6.94875-11.342375-9.81875-17.290125-4.8025 6.8165-10.1375 13.669-15.62625 20.189 7.65875-.193875 16.42875-.979 25.445-2.898875m-7.41125-44.48c2.99375-5.683625 4.87875-10.63375 5.1225-14.3125.27-2.1875-.0975-5.966375-3.19125-5.966375-5.34625 0-5.34625 8.631375-1.93125 20.278875m-94.14125 36.046375c13.02-15.189 19.67875-37.97125 18.1425-47.311-.335-1.956625-1.07125-3.459-3-3.22175-6.08.78025-20.26 28.309125-15.1425 50.53275m-75.08625 19.796375c-5.12625-1.65625-9.385-4.567875-11.88375-7.69775-.18625.152875-.3575.287625-.54625.422875-.02125.23825-.07.484875-.1375.71975-.135 19.09125 6.365 36.7426375 13.57125 35.895 7.59375-1.331125 4.01125-17.70125-1.00375-29.339875m-11.40875-23.293875c14.79375-14.728625 26.315-35.71 26.23875-46.9425 0-2.1625-.48125-4.066375-2.5175-4.066375-4.6275 0-19.725 15.48875-23.72125 51.008875m-43.17 14.5825c-5.94375.5425-7.25375 14.11375-19.11875 14.766125-8.09875.450125-11.81-9.686125-11.81-9.686125s22.9175-10.598625 22.74875-33.484875c-.36875-6.559-3.63-17.0625-15.75375-17.0625-5.2375 0-11.035 3.391125-14.475 7.1285 1.16875-6.191 2.27125-14.141125 2.79-24.944875.33875-7.03125-4.57125-7.71-6.47375-7.604-1.41375.07125-5.52875 1.15625-6.0875 7.516625-1.875 21.212375-2.15875 24.36225-3.85625 37.856-3.11125 24.783625-20.33 33.40275-31.54375 32.75-4.77125-.28225-12.23625-2.873625-12.23625-15.981 0-14.0615 8.8025-24.47025 13.475-23.8315 3.29.44625 4.9875 3.92375 2.06875 8.9125-2.36125 4.13625-4.835 9.892625 1.2575 12.258875 7.235 2.512625 12.585-8.13875 12.78-18.007375 0-7.689-4.75-16.6675-16.39875-17.249-12.26-.61375-26.905 16.340375-26.905 39.131375 0 1.898875.13 3.67775.36875 5.371-.885 5.151375-5.22 10.43175-9.53625 10.43175-4.68875 0-8.645-7.048875-8.15-16.044.52375-9.276375 3.3175-15.452625 4.495-19.1465 2.42375-7.673375-.44875-9.222125-3.8625-9.88725-2.6825-.511125-6.9425.197375-9.185 7.82625-2.0375 6.921375-4.68875 16.379875-6.99625 23.336375-1.43375 4.32475-3.265 9.258875-5.6775 12.632375-2.11875 2.4135-4.41125 4.002375-6.5575 4.002375-7.57625.071375-1.1575-15.50975-1.1575-26.19375-.07375-3.020125-2.3425-8.53225-9.8875-7.004875 8.35375-12.643625 12.57875-23.46 12.315-34.51375-.505-12.13525-9.0125-15.660125-15.435-15.53275-17.20425.36925-26.20425 20.311625-29.47225 66.9405-15.503 15.463375-34.38825 24.798375-52.4 23.263625-25.473625-2.17775-38.6035-28.547875-36.90275-60.168875 2.3925-44.36875 35.544375-97.89625 67.146-94.60875 11.076625 1.16 18.71575 11.49 17.536625 33.87875-1.376 25.955-19.081125 63.805125-37.775 62.69475-8.630375-.512125-11.325625-9.848625-10.667375-18.105875 1.42325-17.881375 10.013125-22.787625 10.586875-30.037625.3335-4.2625-3.798875-6.125-6.829625-5.11-5.202625 1.75625-15.565375 15.3825-16.828625 34.76475-1.544375 23.67925 13.223625 31.068875 21.9785 31.5855 25.9 1.5385 51.17675-36.729 53.30475-76.929 1.367125-26.01875-9.353-42.8175-29.6485-45.125-39.461875-4.47375-80.91695 50.205-83.03608588 107.47875C-.20133 203.803815 15.445705 239.648565 51.93833 242.376065c17.433125 1.183625 35.67525-6.076125 51.63575-19.101-.029375 2.9175 0 5.513625-.008375 7.463875.145125 4.797375 1.7725 8.9375 6.76525 8.77725 4.764125-.17525 6.019-3.814875 5.906625-8.180125-.061-2.534625-.042375-4.995125.01375-7.38725 1.0425-20.854875 10.89025-23.8715 14.8765-23.126375 5.4975 1.221125 1.11625 6.499 1.66375 21.46625.38875 10.725125 8.69 13.585 12.50375 13.585 9.01625 0 16.84625-6.881375 21.43375-17.132375l.16-.1225c3.9825 10.50725 10.73875 14.27 16.1325 14.27 6.32625 0 12.315-4.88525 16.05875-10.306125 5.12 6.75825 12.6525 9.734875 18.275 10.00975 11.39875.54875 21.085-4.943875 28.36-12.314-.84625 5.80025-1.86875 13.59675-1.86875 14.86675 0 3.44475 1.5275 5.880875 4.74875 6.25725 5.3025.61475 9.17375-3.13125 10.82875-21.513625 0 0 7.49375 18.1475 24.13125 18.1475 16.675 0 23.88625-16.872625 23.88625-22.020125 0-1.493625-.5325-5.104-4.5575-4.725m-160.2675-97.095c0-5.3875-13.94875-15.58875-23.800875-16.54625.11625 2.90875.09425 5.9-.06825 9.00875-.38675 7.34625-1.4415 14.76-3.072375 22.03875 18.10275-13.2675 26.9415-9.6225 26.9415-14.50125m428.28 123.901125c-9.8175-.53375-19.995-8.139625-29.04875-18.99225-15.995 3.853625-32.3875 4.61625-43.81625 4.5235-9.4825 10.306625-18.55625 18.892625-25.04125 23.7725 0 0-8.73875 6.974075-12.98 1.05125-2.48-3.976125-1.2175-8.25975 5.59875-12.8135 4.25625-2.8565 9.60375-7.46 15.39125-13.13775-9.78125-2.82125-7.37375-13.56 2.18625-12.323625.695.095125 3.86375.56975 8.75.941375 9.48-10.434125 19.115-22.44775 26.5475-33.453625-3.5025-9.653875-5.545-18.826625-5.545-26.02 0-9.4415 5.1-20.129 15.4825-20.129 10.05 0 15.19375 8.84775 15.19375 17.99375 0 7.77875-4.49375 18.305125-11.34625 29.65525 3.9275 8.856 9.0075 18.05125 14.7175 25.9135 6.15625-2.118625 12.22125-4.90525 17.92125-8.4975 7.67875-4.859875 14.2875 4.5 6.2225 10.495125-4.84875 3.214875-10.215 5.827125-15.83625 7.944875 5.915 6.036125 12.15125 10.095125 18.145 10.6425 10.26375.924875 10.68625 13.564-2.5425 12.433625m-100.1625-28.106c-1.2025 4.987375-7.39625 19.382375-23.19125 19.75975h-.345c-7.32625.11775-14.495-3.6225-19.775-10.503375-7.42625 4.96-14.58 7.349625-19.72125 6.52975-11.1375-1.786125-14.47375-11.09275-15.42875-17.1625-6.38375 7.991125-14.8725 11.7885-23.03625 12.573625 2.9125 6.0215 4.385 13.256375 4.385 19.912625 0 10.3877125-5.69375 21.01125-15.99875 21.01125-14.405 0-23.0375-21.423875-24.16125-42.28375-2.4625.967375-6.52625 1.73-8.41375-2.439875-2.27875-5.01025 3.37125-9.63525 8.14125-12.492625.8325-41.569875 18.01125-70.9775 36.58625-70.9775 6.245 0 13.76625 4.022375 13.76625 16.1015 0 12.65625-7.09125 28.866125-18.5275 43.335875-1.555 1.963875-5.17 5.806125-9.19125 9.746625 16.2375 12.169875 26.08375-.943875 30.14125-8.996625.96625-2.15725 1.77625-4.2885 2.3925-6.159625 2.30375-6.939 1.6425-5.318875 3.81125-12.19775 3.09375-9.80125 8.1125-9.372625 10.3825-8.987375 8.08625 1.422375 3.24125 10.90875 1.2625 19.251l-.09125.202625c-3.04 14.216375-1.62625 25.498625 6.75875 27.245125 2.6775.4185 7.29625-1.23775 12.02125-4.794875-11.05375-30.310125 5.82625-66.192875 23.29625-69.651375 5.83375-1.153875 13.50375 1.111375 15.43625 12.034625 2.00625 11.4615-2.0225 27.431625-10.3975 42.63625-1.89 3.45025-7.34375 11.2115-13.805 17.1065.03875.056125.06625.11225.0625.121 4.89625 6.80675 11.08875 6.641625 11.08875 6.641625 9.175-.055125 11.94-7.4965 13.07-10.576125 1.2975-3.53275 3.96125-4.702625 6.77875-3.755375 3.06625 1.04 3.28875 4.371625 2.7025 6.769m-65.0725-63.119125c-3.8925 0-7.04625 3.32275-7.04625 7.454125 0 4.11225 3.15375 7.451125 7.04625 7.451125 3.88625 0 7.02625-3.338875 7.02625-7.451125 0-4.131375-3.14-7.454125-7.02625-7.454125m79.29 46.8125c8.9825 0 12.465-3.714875 12.465-7.534625 0-4.90525-5.555-7.27-12.45625-7.20125-7.06.07725-12.08 2.84475-12.08 7.266125 0 3.602625 3.08875 7.46975 12.07125 7.46975m-171.00375.03025c9.00875 0 12.52375-3.734875 12.52375-7.564875 0-4.93025-5.57875-7.297375-12.52375-7.227625-7.0875.078625-12.11875 2.859-12.11875 7.2925 0 3.623625 3.1075 7.5 12.11875 7.5m-133.6925-39.3965c-4.0975 0-7.41125 3.506375-7.41125 7.849125 0 4.32475 3.31375 7.831125 7.41125 7.831125 4.08125 0 7.4025-3.506375 7.4025-7.831125 0-4.34275-3.32125-7.849125-7.4025-7.849125M25.32458 45.13744c-3.36425 4.19375-2.320375 11.00375 3.788 16.525 6.1045 5.5375 14.582625 7.33125 17.96 3.14375 3.3765-4.19.36625-12.7875-5.735875-18.31-6.105875-5.535-12.619625-5.54625-16.012125-1.35875m24.161625-29.96125c-6.5625 3.1875-8.893125 12.67875-4.0625 23.8425 4.82275 11.16625 14.678625 19.0725 21.23625 15.90375 6.567375-3.19125 7.355-16.27625 2.528375-27.445-4.828125-11.15375-13.141125-15.47875-19.702125-12.30125M99.46658 1.32369c-8.719625-2.02-17.65125 5.49625-20.671375 20.255-3.036125 14.7525 1.19 30.2625 9.913125 32.2625 8.713375 2.00875 18.6465-10.235 21.6665-24.99125 3.02975-14.755-2.185-25.53-10.90825-27.52625m62.9775 23.99375c-6.6575-9.48125-21.06625-10.06-35.62375 1.40125-14.55725 11.465-22.859 29.91875-16.20375 39.42375 6.657625 9.48125 25.74875 6.41125 40.3175-5.055 14.55125-11.46625 18.1625-26.26625 11.51-35.77m-70.2065 73.49125c-.1635 7.70375-9.032125 17.10375-13.268 9.86375-2.308125-5.5425 3.495125-15.6275 8.868625-15.79875 4.332 0 4.434625 4.09625 4.399375 5.935"/>
  </g>
</svg>
