<svg xmlns="http://www.w3.org/2000/svg" viewBox="0 0 1228.61 1013.69"><defs><style>.cls-1{isolation:isolate;}.cls-2{fill:red;}</style></defs><title>shape-2</title><g class="cls-1"><g id="Layer_2" data-name="Layer 2"><g id="Layer_1-2" data-name="Layer 1"><path class="cls-2" d="M1227.36,371.43c3.25-45.54,1.5-93.67-21.3-133.23C1157.25,153.48,1031,121.28,947,86.11,881.75,58.79,817.8,22.37,747.31,10.56c-181-30.35-430.3,6-591.45,92.67C111.75,127,47.61,149.63,16.22,190.77-19,236.91,11.53,284,28.69,332.23c43.05,120.9,79.55,255.87,79.1,385-.36,103.93,64.4,173.13,161.56,212.24,45.29,18.24,95.08,19.92,142.19,31.1,46.39,11,90.15,31.3,136.43,42.77,127.22,31.54,239-13.16,345-80.48,120.61-76.65,217.33-190.08,275.61-320.44C1201.33,529.12,1220.69,451.4,1227.36,371.43Z"/></g></g></g></svg>