<svg xmlns="http://www.w3.org/2000/svg" viewBox="0 0 1252.76 963.84"><defs><style>.cls-1{isolation:isolate;}.cls-2{fill:green;}</style></defs><title>shape-1</title><g class="cls-1"><g id="Layer_2" data-name="Layer 2"><g id="Layer_1-2" data-name="Layer 1"><path class="cls-2" d="M728.23,946.18C766,940.63,803.69,934.3,841.29,928c102.29-17.2,310.37-8.42,362.89-120.66,59.49-127.13-50.26-257.43-58.62-380.86-4.79-70.71,23.36-132.46,62.63-188,34-48.06,61.92-111.58,31.6-169.68C1221.9,34.43,1185,13.3,1147.16,5.18s-77-5-115.6-1.89C886.09,15.13,724.55,15,583.77,55.72,469,88.89,321,77,217,138,150.75,176.88,109.8,247,75.66,315.77,30.42,407-8.9,506.52,1.76,607.75c11.8,112,85.84,211.64,181.32,271.36s210.15,83,322.76,84.63C580.32,964.83,654.44,957,728.23,946.18Z"/></g></g></g></svg>