<svg xmlns="http://www.w3.org/2000/svg" viewBox="0 0 1331.38 919.4"><defs><style>.cls-1{isolation:isolate;}.cls-2{fill:blue;}</style></defs><title>shape-3</title><g class="cls-1"><g id="Layer_2" data-name="Layer 2"><g id="Layer_1-2" data-name="Layer 1"><path class="cls-2" d="M1330.58,369c4.32-66.9-7.88-132.59-61.66-180.09-61.24-54.1-145.65-74.43-219.34-105.28-151.48-63.43-325.5-90-491-82.37C414.88,7.87,267.9,52.92,165,153.34,97.54,219.11,52.36,305.3,25.5,395.57,2.52,472.79-7.67,555,6.5,634.33S60.81,789.88,125,838.65C243.74,929,406.82,910.7,546.72,909.59c138.48-1.09,283.63,22.77,421-.24,208.36-34.9,302.21-248.71,345.78-435.42C1321.35,440.3,1328.29,404.48,1330.58,369Z"/></g></g></g></svg>